<svg width="24" height="24" viewBox="0 0 24 24" fill="none" xmlns="http://www.w3.org/2000/svg">
<g id="basket">
<path id="Union" fill-rule="evenodd" clip-rule="evenodd" d="M5.69865 6.99988L10.0973 2.78455C11.161 1.76518 12.839 1.76517 13.9027 2.78455L18.3013 6.99988H20.847C21.4555 6.99988 21.923 7.53887 21.8369 8.1413L20.368 18.4241C20.1568 19.9021 18.8911 20.9999 17.3981 20.9999H6.6019C5.10895 20.9999 3.84318 19.9021 3.63205 18.4241L2.16307 8.1413C2.07701 7.53886 2.54447 6.99988 3.15302 6.99988H5.69865ZM11.1351 3.86753C11.6186 3.40418 12.3814 3.40418 12.8649 3.86753L16.1334 6.99988H7.86658L11.1351 3.86753ZM3.72952 8.49988L5.11697 18.212C5.22254 18.951 5.85542 19.4999 6.6019 19.4999H17.3981C18.1446 19.4999 18.7775 18.951 18.883 18.212L20.2705 8.49988H3.72952Z" fill="#2A333E"/>
<path id="Vector 606 (Stroke)" fill-rule="evenodd" clip-rule="evenodd" d="M8 11.25C8.41421 11.25 8.75 11.5858 8.75 12V16C8.75 16.4142 8.41421 16.75 8 16.75C7.58579 16.75 7.25 16.4142 7.25 16V12C7.25 11.5858 7.58579 11.25 8 11.25Z" fill="#2A333E"/>
<path id="Vector 607 (Stroke)" fill-rule="evenodd" clip-rule="evenodd" d="M12 11.25C12.4142 11.25 12.75 11.5858 12.75 12V16C12.75 16.4142 12.4142 16.75 12 16.75C11.5858 16.75 11.25 16.4142 11.25 16V12C11.25 11.5858 11.5858 11.25 12 11.25Z" fill="#2A333E"/>
<path id="Vector 608 (Stroke)" fill-rule="evenodd" clip-rule="evenodd" d="M16 11.25C16.4142 11.25 16.75 11.5858 16.75 12V16C16.75 16.4142 16.4142 16.75 16 16.75C15.5858 16.75 15.25 16.4142 15.25 16V12C15.25 11.5858 15.5858 11.25 16 11.25Z" fill="#2A333E"/>
</g>
</svg>
