<svg width="114" height="35" viewBox="0 0 114 35" fill="none" xmlns="http://www.w3.org/2000/svg">
<g id="Group 36">
<g id="Group 48">
<g id="Vector">
<path d="M7.712 34.2079H3.2L6.912 26.0159L0.223999 12.2559H4.992L9.184 21.4719L13.056 12.2559H17.6L7.712 34.2079Z" fill="#2A333E"/>
<path d="M18.7495 23.7119C18.7495 22.3679 19.1868 21.2906 20.0615 20.4799C20.9362 19.6693 22.0668 19.1573 23.4535 18.9439L27.3255 18.3679C28.1148 18.2613 28.5095 17.8879 28.5095 17.2479C28.5095 16.6506 28.2748 16.1599 27.8055 15.7759C27.3575 15.3919 26.7068 15.1999 25.8535 15.1999C24.9575 15.1999 24.2428 15.4453 23.7095 15.9359C23.1975 16.4266 22.9095 17.0346 22.8455 17.7599L19.0695 16.9599C19.2188 15.5946 19.8908 14.3893 21.0855 13.3439C22.2802 12.2986 23.8588 11.7759 25.8215 11.7759C28.1682 11.7759 29.8962 12.3413 31.0055 13.4719C32.1148 14.5813 32.6695 16.0106 32.6695 17.7599V25.5039C32.6695 26.4426 32.7335 27.2746 32.8615 27.9999H28.9575C28.8508 27.5306 28.7975 26.9013 28.7975 26.1119C27.7948 27.6693 26.2482 28.4479 24.1575 28.4479C22.5362 28.4479 21.2242 27.9786 20.2215 27.0399C19.2402 26.1013 18.7495 24.9919 18.7495 23.7119ZM25.0535 25.2799C26.0562 25.2799 26.8775 25.0026 27.5175 24.4479C28.1788 23.8719 28.5095 22.9333 28.5095 21.6319V20.9279L24.9575 21.4719C23.6562 21.6639 23.0055 22.3253 23.0055 23.4559C23.0055 23.9679 23.1868 24.4053 23.5495 24.7679C23.9122 25.1093 24.4135 25.2799 25.0535 25.2799Z" fill="#2A333E"/>
<path d="M41.2155 18.9439V27.9999H36.9595V12.2559H41.0875V14.2079C41.5355 13.4399 42.1755 12.8533 43.0075 12.4479C43.8395 12.0426 44.7142 11.8399 45.6315 11.8399C47.4875 11.8399 48.8955 12.4266 49.8555 13.5999C50.8368 14.7519 51.3275 16.2453 51.3275 18.0799V27.9999H47.0715V18.8159C47.0715 17.8773 46.8262 17.1199 46.3355 16.5439C45.8662 15.9679 45.1408 15.6799 44.1595 15.6799C43.2635 15.6799 42.5488 15.9893 42.0155 16.6079C41.4822 17.2266 41.2155 18.0053 41.2155 18.9439Z" fill="#2A333E"/>
<path d="M59.903 18.9439V27.9999H55.647V12.2559H59.775V14.2079C60.223 13.4399 60.863 12.8533 61.695 12.4479C62.527 12.0426 63.4017 11.8399 64.319 11.8399C66.175 11.8399 67.583 12.4266 68.543 13.5999C69.5243 14.7519 70.015 16.2453 70.015 18.0799V27.9999H65.759V18.8159C65.759 17.8773 65.5137 17.1199 65.023 16.5439C64.5537 15.9679 63.8283 15.6799 62.847 15.6799C61.951 15.6799 61.2363 15.9893 60.703 16.6079C60.1697 17.2266 59.903 18.0053 59.903 18.9439Z" fill="#2A333E"/>
<path d="M73.3745 23.7119C73.3745 22.3679 73.8118 21.2906 74.6865 20.4799C75.5612 19.6693 76.6918 19.1573 78.0785 18.9439L81.9505 18.3679C82.7398 18.2613 83.1345 17.8879 83.1345 17.2479C83.1345 16.6506 82.8998 16.1599 82.4305 15.7759C81.9825 15.3919 81.3318 15.1999 80.4785 15.1999C79.5825 15.1999 78.8678 15.4453 78.3345 15.9359C77.8225 16.4266 77.5345 17.0346 77.4705 17.7599L73.6945 16.9599C73.8438 15.5946 74.5158 14.3893 75.7105 13.3439C76.9052 12.2986 78.4838 11.7759 80.4465 11.7759C82.7932 11.7759 84.5212 12.3413 85.6305 13.4719C86.7398 14.5813 87.2945 16.0106 87.2945 17.7599V25.5039C87.2945 26.4426 87.3585 27.2746 87.4865 27.9999H83.5825C83.4758 27.5306 83.4225 26.9013 83.4225 26.1119C82.4198 27.6693 80.8732 28.4479 78.7825 28.4479C77.1612 28.4479 75.8492 27.9786 74.8465 27.0399C73.8652 26.1013 73.3745 24.9919 73.3745 23.7119ZM79.6785 25.2799C80.6812 25.2799 81.5025 25.0026 82.1425 24.4479C82.8038 23.8719 83.1345 22.9333 83.1345 21.6319V20.9279L79.5825 21.4719C78.2812 21.6639 77.6305 22.3253 77.6305 23.4559C77.6305 23.9679 77.8118 24.4053 78.1745 24.7679C78.5372 25.1093 79.0385 25.2799 79.6785 25.2799Z" fill="#2A333E"/>
<path d="M95.8405 27.9999H91.5845V4.83194H95.8405V27.9999Z" fill="#2A333E"/>
<path d="M103.128 1.84794H100.356V8.99994H98.916V1.84794H96.156V0.491943H103.128V1.84794Z" fill="#2A333E"/>
<path d="M113.669 8.99994H112.241V2.73594L109.589 8.99994H108.341L105.713 2.75994V8.99994H104.309V0.491943H106.229L108.989 6.98394L111.713 0.491943H113.669V8.99994Z" fill="#2A333E"/>
</g>
</g>
</g>
</svg>
